<?xml version="1.0" standalone="no"?>
<!DOCTYPE svg PUBLIC "-//W3C//DTD SVG 20010904//EN"
 "http://www.w3.org/TR/2001/REC-SVG-20010904/DTD/svg10.dtd">
<svg version="1.0" xmlns="http://www.w3.org/2000/svg"
 width="1280.000000pt" height="960.000000pt" viewBox="0 0 1280.000000 960.000000"
 preserveAspectRatio="xMidYMid meet">
<metadata>
Created by potrace 1.15, written by Peter Selinger 2001-2017
</metadata>
<g transform="translate(0.000000,960.000000) scale(0.100000,-0.100000)"
fill="#000000" stroke="none">
<path d="M0 6145 l0 -3455 595 0 c469 0 595 -3 596 -12 1 -7 5 3 9 22 l7 35 2
-37 1 -38 120 0 119 0 6 33 c3 17 6 59 8 92 3 55 3 53 5 -17 l2 -77 298 -3
c247 -3 302 -1 327 12 38 19 191 21 220 2 18 -11 17 -11 -10 -5 -16 5 -64 8
-105 8 -90 -1 -136 -21 -197 -88 -42 -45 -82 -144 -68 -167 3 -5 30 -10 59
-10 l54 0 7 37 c17 92 55 118 160 111 112 -7 155 -59 155 -189 0 -106 -13
-120 -112 -130 -142 -13 -170 -46 -176 -206 l-4 -103 66 0 66 0 0 65 c0 36 6
81 14 99 13 31 17 33 75 39 119 10 158 58 171 211 10 112 -1 176 -37 231 -15
22 -28 45 -28 50 -1 6 -7 9 -14 7 -6 -1 -22 5 -34 13 -14 10 -16 16 -7 14 8
-1 366 -1 795 0 l780 1 -1 62 -1 63 4 -57 4 -58 77 -2 77 -2 -75 -5 c-41 -3
205 -4 548 -3 516 3 622 2 623 -10 1 -7 5 5 9 27 l7 40 2 -42 1 -43 125 0
c112 0 125 2 126 18 0 14 2 14 9 -3 8 -17 9 -18 9 -2 1 16 19 17 274 17 150
-1 281 2 292 5 11 4 5 -2 -13 -14 -37 -24 -46 -26 -36 -8 5 8 3 8 -9 -2 -9 -7
-15 -17 -12 -21 2 -4 -5 -16 -17 -26 -29 -26 -68 -112 -68 -152 l0 -33 57 3
58 3 7 45 c5 32 17 53 38 72 27 25 38 28 96 28 74 0 109 -15 148 -60 24 -29
26 -39 26 -126 0 -117 -12 -134 -92 -134 -150 0 -198 -61 -198 -252 l0 -58 64
0 63 0 7 77 c9 95 24 123 69 123 48 0 109 19 134 42 41 38 58 103 58 223 0 94
-3 116 -22 151 -50 93 -149 141 -272 131 -38 -2 -58 -1 -46 4 33 13 119 10
171 -6 43 -13 242 -15 1562 -15 1186 0 1512 -3 1514 -13 1 -6 4 13 8 43 l7 55
1 -57 2 -58 124 0 125 0 5 43 c4 23 8 62 10 87 2 25 3 5 1 -45 -1 -49 0 -82 3
-72 3 16 25 17 330 17 274 -1 333 2 364 15 39 16 139 19 173 6 11 -5 -14 -6
-56 -3 -62 4 -84 1 -123 -17 -27 -11 -52 -18 -57 -15 -5 3 -8 0 -7 -8 2 -7 -5
-12 -14 -12 -10 1 -16 -1 -15 -5 1 -3 -12 -26 -29 -51 -34 -50 -54 -100 -54
-137 0 -23 3 -24 56 -21 l57 3 12 48 c18 73 41 91 123 95 137 8 198 -57 190
-204 -4 -95 -15 -107 -111 -114 -83 -7 -122 -23 -151 -63 -18 -24 -22 -46 -24
-138 l-4 -109 60 0 c69 0 72 3 72 88 0 88 14 106 85 114 130 15 166 65 173
240 4 85 1 118 -12 151 -17 45 -70 103 -121 131 -16 10 -22 15 -13 12 10 -3
453 -7 985 -8 533 -2 934 0 893 3 l-75 5 77 2 c75 2 77 2 81 30 3 21 4 20 3
-5 l-2 -33 163 0 163 0 0 3455 0 3455 -6400 0 -6400 0 0 -3455z m5467 -3412
c-2 -21 -4 -4 -4 37 0 41 2 58 4 38 2 -21 2 -55 0 -75z m-1370 5 c-2 -18 -4
-6 -4 27 0 33 2 48 4 33 2 -15 2 -42 0 -60z m3939 -33 c-4 -12 -23 -15 -83
-13 l-78 2 78 3 c71 4 77 5 78 26 0 12 3 16 6 9 3 -7 2 -19 -1 -27z"/>
<path d="M3971 2626 c-30 -17 -50 -52 -51 -89 0 -41 57 -97 100 -97 41 0 100
56 100 94 0 80 -80 130 -149 92z"/>
<path d="M7898 2611 c-27 -24 -33 -36 -33 -71 0 -35 6 -47 33 -71 36 -32 69
-36 112 -14 59 31 69 107 21 156 -40 40 -89 40 -133 0z"/>
<path d="M12338 2611 c-27 -24 -33 -36 -33 -71 0 -72 76 -121 138 -89 35 18
57 51 57 87 0 44 -14 68 -50 87 -43 22 -76 18 -112 -14z"/>
<path d="M469 2527 c-89 -34 -155 -94 -195 -181 -13 -28 -24 -66 -24 -83 l0
-33 69 0 68 0 5 45 c11 91 62 129 173 129 85 0 143 -26 180 -82 22 -34 25 -48
26 -142 0 -58 -3 -113 -6 -123 -12 -28 -44 -40 -137 -48 -160 -13 -197 -59
-201 -250 l-2 -114 75 0 75 0 6 99 c5 92 8 101 33 123 21 18 39 23 79 23 122
0 178 64 198 226 26 209 -22 329 -159 395 -59 28 -207 37 -263 16z"/>
<path d="M1263 2520 c-87 -53 -102 -165 -32 -245 54 -61 149 -69 210 -18 118
100 56 283 -96 283 -32 0 -62 -7 -82 -20z"/>
<path d="M4412 2519 c-96 -37 -182 -144 -198 -246 l-7 -43 70 0 70 0 7 41 c16
98 60 133 171 133 105 1 171 -39 201 -121 27 -78 12 -234 -26 -258 -6 -4 -51
-10 -98 -14 -104 -9 -154 -30 -184 -80 -20 -31 -23 -52 -27 -163 l-3 -128 76
0 76 0 0 68 c1 79 13 139 33 160 9 8 46 17 89 22 40 4 83 12 95 19 70 37 107
158 101 326 -3 90 -6 106 -34 155 -37 66 -96 114 -166 135 -73 21 -181 19
-246 -6z"/>
<path d="M5264 2521 c-91 -56 -105 -170 -31 -249 74 -78 202 -58 252 39 24 45
19 118 -9 160 -45 66 -147 90 -212 50z"/>
<path d="M9399 2517 c-49 -32 -83 -105 -74 -158 9 -53 64 -115 116 -131 70
-20 161 24 189 92 17 41 8 121 -18 157 -45 63 -149 83 -213 40z"/>
<path d="M8700 2401 c-120 -37 -218 -145 -236 -260 l-7 -41 70 0 70 0 7 41
c16 98 60 133 171 133 52 0 81 -6 112 -22 82 -43 107 -101 101 -234 -6 -119
-15 -128 -136 -138 -173 -15 -212 -64 -212 -267 l0 -103 75 0 75 0 0 68 c1 79
13 139 33 160 9 8 46 18 92 22 116 11 155 48 181 170 11 51 15 107 12 176 -4
90 -8 108 -35 155 -34 62 -98 111 -176 134 -53 16 -154 19 -197 6z"/>
<path d="M3130 2374 c-219 -47 -408 -261 -410 -461 l0 -33 109 0 108 0 6 60
c15 144 79 209 225 230 167 23 328 -50 383 -175 15 -34 19 -71 21 -196 3 -235
-12 -256 -190 -271 -214 -17 -284 -48 -335 -148 -24 -48 -29 -72 -37 -190 -5
-74 -6 -163 -3 -197 l6 -63 113 0 c133 0 120 -17 127 165 8 198 28 224 189
236 248 19 320 137 322 524 1 132 -2 158 -22 217 -58 168 -203 279 -400 308
-88 13 -133 11 -212 -6z"/>
<path d="M7103 2375 c-190 -43 -342 -186 -397 -374 -9 -30 -16 -70 -16 -88 l0
-33 110 0 110 0 0 30 c0 56 22 129 51 169 37 51 90 78 177 91 127 18 250 -18
328 -97 55 -55 71 -102 78 -234 12 -199 -10 -272 -89 -296 -22 -7 -94 -17
-160 -22 -148 -13 -213 -40 -261 -112 -42 -63 -54 -134 -54 -321 l0 -158 115
0 c134 0 121 -16 129 160 8 203 29 230 185 240 230 16 299 107 324 423 19 247
-14 377 -124 487 -116 116 -335 174 -506 135z"/>
<path d="M11096 2380 c-224 -40 -411 -233 -433 -447 l-6 -53 112 0 111 0 0 28
c0 49 30 145 56 179 70 93 279 117 414 48 70 -36 106 -70 136 -130 25 -52 26
-64 28 -213 2 -231 -16 -254 -202 -266 -187 -11 -274 -49 -319 -136 -33 -66
-43 -134 -43 -307 l0 -154 118 3 117 3 7 135 c8 149 25 211 65 237 17 11 59
19 124 24 213 14 290 102 319 364 34 311 -20 490 -183 598 -108 72 -293 110
-421 87z"/>
<path d="M2095 1875 c-51 -50 -15 -135 58 -135 45 0 77 34 77 82 0 70 -86 103
-135 53z"/>
<path d="M6036 1869 c-30 -35 -32 -49 -11 -88 15 -31 33 -41 70 -41 37 0 55
10 71 42 45 86 -68 161 -130 87z"/>
<path d="M10286 1879 c-20 -16 -26 -29 -26 -58 0 -74 83 -109 135 -56 73 72
-28 178 -109 114z"/>
<path d="M474 1561 c-32 -14 -64 -60 -64 -92 0 -17 11 -41 29 -61 60 -67 166
-28 166 62 0 66 -72 116 -131 91z"/>
<path d="M4430 1558 c-38 -20 -63 -78 -50 -114 25 -66 84 -90 138 -58 57 33
68 96 25 144 -32 35 -77 46 -113 28z"/>
<path d="M8682 1425 c-64 -28 -75 -114 -20 -160 64 -54 158 -7 158 79 0 31
-46 83 -80 90 -14 3 -40 -1 -58 -9z"/>
<path d="M1801 1364 c-68 -18 -109 -43 -156 -95 -41 -45 -70 -103 -80 -161
l-7 -38 70 0 69 0 5 45 c11 91 61 128 173 129 83 1 139 -24 182 -81 27 -35 28
-41 28 -151 0 -110 -1 -114 -26 -136 -21 -18 -44 -24 -107 -29 -172 -13 -211
-61 -212 -260 l0 -108 73 3 72 3 5 91 c4 62 10 98 23 117 10 15 18 27 20 28 1
0 37 4 80 8 93 10 122 28 155 93 27 53 47 206 38 287 -17 144 -102 233 -251
260 -73 14 -87 13 -154 -5z"/>
<path d="M5769 1367 c-61 -17 -131 -59 -165 -99 -31 -38 -69 -118 -78 -165
l-5 -33 68 0 68 0 7 41 c14 88 50 122 143 135 99 13 203 -40 232 -119 17 -44
14 -203 -4 -237 -17 -33 -27 -36 -134 -45 -154 -12 -193 -60 -199 -247 l-4
-118 76 0 76 0 0 68 c1 79 13 139 33 160 9 8 47 18 94 23 43 4 79 8 80 8 1 1
18 15 38 32 45 40 64 103 72 239 8 146 -10 206 -81 276 -79 77 -211 111 -317
81z"/>
<path d="M1035 1261 c-40 -24 -61 -49 -80 -94 -22 -52 -20 -57 25 -57 36 0 40
2 40 25 0 14 11 37 25 50 44 45 147 27 173 -30 16 -35 15 -130 -1 -143 -7 -6
-37 -14 -66 -18 -33 -4 -63 -15 -79 -29 -23 -20 -27 -32 -30 -99 l-4 -76 40 0
40 0 4 54 c6 69 20 86 69 86 59 0 87 31 100 110 19 118 -11 194 -88 226 -47
20 -132 18 -168 -5z"/>
<path d="M4865 1266 c-41 -18 -74 -56 -90 -103 -16 -47 -13 -53 29 -53 31 0
34 3 40 35 4 19 17 41 29 50 44 31 143 11 167 -34 15 -28 13 -136 -3 -149 -7
-6 -37 -14 -66 -18 -33 -4 -63 -15 -79 -29 -23 -20 -27 -32 -30 -99 l-4 -76
41 0 c26 0 41 5 42 13 2 55 13 104 27 115 9 6 31 12 50 12 55 0 88 42 97 123
4 37 4 82 1 102 -8 40 -46 89 -87 110 -35 18 -124 19 -164 1z"/>
<path d="M9005 1266 c-41 -18 -74 -57 -90 -103 -16 -47 -13 -53 31 -53 30 0
34 3 34 25 0 41 42 75 90 75 47 0 95 -21 110 -49 15 -28 13 -136 -3 -149 -7
-6 -37 -14 -66 -18 -33 -4 -63 -15 -79 -29 -23 -20 -27 -32 -30 -99 l-4 -76
40 0 39 0 7 60 c8 65 21 80 74 80 48 0 79 33 92 97 32 152 -24 244 -153 250
-38 2 -74 -2 -92 -11z"/>
<path d="M12193 1255 c-27 -16 -49 -40 -62 -68 -32 -65 -29 -79 17 -75 32 3
37 7 40 30 8 68 114 92 173 40 27 -24 33 -37 37 -84 6 -80 -5 -95 -79 -103
-91 -11 -109 -32 -109 -130 l0 -75 40 0 40 0 0 48 c0 63 21 92 66 92 77 0 104
44 104 168 0 66 -4 85 -22 112 -50 73 -164 93 -245 45z"/>
<path d="M10042 1239 c-62 -10 -102 -29 -159 -76 -47 -37 -100 -136 -105 -193
l-3 -35 66 -3 66 -3 7 51 c16 122 156 176 286 110 80 -41 100 -85 100 -221 0
-132 -9 -143 -133 -154 -171 -14 -207 -55 -215 -246 l-5 -119 77 0 76 0 0 63
c1 83 14 148 34 163 9 6 47 15 84 19 87 9 136 37 162 91 40 82 53 267 25 360
-28 95 -125 176 -227 189 -24 4 -52 8 -63 9 -11 2 -44 -1 -73 -5z"/>
<path d="M3060 778 c-53 -36 -72 -70 -73 -125 -2 -164 215 -223 290 -80 54
104 -20 227 -137 227 -32 0 -57 -7 -80 -22z"/>
<path d="M7030 777 c-134 -89 -67 -297 91 -284 124 10 189 156 112 248 -53 63
-141 79 -203 36z"/>
<path d="M11002 781 c-102 -65 -96 -223 12 -272 74 -33 143 -18 189 42 52 69
45 148 -18 209 -30 29 -43 34 -92 37 -46 3 -65 0 -91 -16z"/>
<path d="M1045 730 c-15 -16 -17 -26 -9 -48 16 -45 88 -43 100 4 13 52 -54 85
-91 44z"/>
<path d="M4864 725 c-15 -23 -15 -27 0 -50 30 -46 96 -26 96 29 0 46 -69 61
-96 21z"/>
<path d="M9006 728 c-21 -29 -20 -41 2 -61 38 -35 92 -13 92 37 0 44 -68 61
-94 24z"/>
<path d="M12210 731 c-24 -45 -5 -81 42 -81 18 0 33 8 44 25 15 23 15 27 0 50
-21 31 -70 35 -86 6z"/>
<path d="M1756 375 c-41 -38 -39 -97 5 -137 92 -86 213 49 124 138 -33 33 -92
33 -129 -1z"/>
<path d="M5719 371 c-21 -22 -29 -39 -29 -66 0 -45 45 -95 85 -95 91 0 138 99
76 161 -22 21 -39 29 -66 29 -27 0 -44 -8 -66 -29z"/>
<path d="M9969 241 c-21 -22 -29 -39 -29 -66 0 -51 44 -95 95 -95 51 0 95 44
95 95 0 51 -44 95 -95 95 -27 0 -44 -8 -66 -29z"/>
</g>
</svg>
